<svg width="10" height="11" viewBox="0 0 10 11" fill="none" xmlns="http://www.w3.org/2000/svg">
<path d="M8.97741 3.80813C8.8602 3.69096 8.70126 3.62513 8.53553 3.62513C8.36981 3.62513 8.21086 3.69096 8.09366 3.80813L4.99991 6.90188L1.90616 3.80813C1.78828 3.69428 1.63041 3.63128 1.46653 3.6327C1.30266 3.63413 1.1459 3.69986 1.03002 3.81574C0.914142 3.93162 0.848412 4.08838 0.846988 4.25225C0.845564 4.41612 0.90856 4.574 1.02241 4.69188L4.55803 8.2275C4.67524 8.34467 4.83418 8.41049 4.99991 8.41049C5.16564 8.41049 5.32458 8.34467 5.44178 8.2275L8.97741 4.69188C9.09458 4.57467 9.1604 4.41573 9.1604 4.25C9.1604 4.08427 9.09458 3.92533 8.97741 3.80813Z" fill="#251814"/>
</svg>
