<svg width="29" height="29" viewBox="0 0 29 29" fill="none" xmlns="http://www.w3.org/2000/svg">
<path d="M20.0922 16.3668C20.3156 15.7699 20.4289 15.1374 20.4267 14.5001C20.4267 13.085 19.8646 11.7279 18.8639 10.7273C17.8633 9.72669 16.5062 9.16455 15.0911 9.16455C14.4617 9.16529 13.8374 9.27855 13.2478 9.49899L14.5 10.7901C14.6904 10.7597 14.8828 10.744 15.0756 10.7434C16.0761 10.7414 17.0369 11.1352 17.748 11.8391C18.4592 12.5429 18.8629 13.4996 18.8711 14.5001C18.8705 14.6929 18.8549 14.8853 18.8245 15.0757L20.0922 16.3668Z" fill="#EDB046"/>
<path d="M27.17 14.1345C24.5489 9.28891 19.9523 6.35669 14.8656 6.35669C13.4806 6.35994 12.105 6.58309 10.79 7.0178L12.0423 8.2778C12.9646 8.03943 13.913 7.91664 14.8656 7.91224C19.2445 7.91224 23.2267 10.3545 25.5989 14.4689C24.7287 15.9954 23.5751 17.3417 22.2 18.4356L23.3045 19.54C24.8959 18.2562 26.2175 16.6702 27.1934 14.8734L27.3956 14.5L27.17 14.1345Z" fill="#EDB046"/>
<path d="M4.28774 4.99556L7.75663 8.46445C5.56401 9.8762 3.772 11.8289 2.5533 14.1344L2.35107 14.5L2.5533 14.8733C5.17441 19.7189 9.77107 22.6511 14.8577 22.6511C16.8431 22.6507 18.8028 22.2014 20.59 21.3367L24.4789 25.2256L25.84 24.0589L5.61774 3.83667L4.28774 4.99556ZM11.8711 12.5789L17.0433 17.7511C16.4589 18.1128 15.7861 18.3066 15.0989 18.3111C14.5995 18.3111 14.105 18.2124 13.6439 18.0206C13.1828 17.8288 12.7642 17.5477 12.4122 17.1935C12.0602 16.8393 11.7817 16.4189 11.5927 15.9567C11.4037 15.4944 11.308 14.9994 11.3111 14.5C11.3198 13.8207 11.5134 13.1565 11.8711 12.5789ZM10.7433 11.4511C10.0156 12.4773 9.67457 13.7279 9.7805 14.9814C9.88642 16.235 10.4325 17.4106 11.322 18.3001C12.2116 19.1897 13.3872 19.7358 14.6408 19.8417C15.8943 19.9476 17.1449 19.6066 18.1711 18.8789L19.4155 20.1233C17.9749 20.7391 16.4244 21.0566 14.8577 21.0567C10.4789 21.0567 6.49663 18.6144 4.12441 14.5C5.26285 12.4842 6.90242 10.7964 8.88441 9.6L10.7433 11.4511Z" fill="#EDB046"/>
</svg>
